<svg id="svg" version="1.1" xmlns="http://www.w3.org/2000/svg" xmlns:xlink="http://www.w3.org/1999/xlink" width="400" height="400.9756097560976" viewBox="0, 0, 400,400.9756097560976"><g id="svgg"><path id="path0" d="M8.585 205.300 C 8.480 205.575,8.441 247.740,8.497 299.000 L 8.600 392.200 199.780 392.300 C 332.995 392.370,391.087 392.273,391.380 391.980 C 391.982 391.379,392.203 206.727,391.603 205.606 L 391.172 204.800 199.973 204.800 C 47.383 204.800,8.737 204.901,8.585 205.300 M80.667 264.533 C 81.092 264.957,81.361 272.015,81.021 273.827 L 80.764 275.200 66.382 275.200 L 52.000 275.200 52.000 282.353 C 52.000 290.985,50.238 289.987,65.500 289.995 L 77.200 290.000 77.200 295.200 L 77.200 300.400 64.600 300.400 L 52.000 300.400 52.000 312.626 C 52.000 320.289,51.845 325.141,51.586 325.626 C 51.013 326.697,40.249 326.827,39.843 325.767 C 39.203 324.099,39.587 265.270,40.243 264.614 C 40.953 263.905,79.959 263.826,80.667 264.533 M303.500 264.252 C 304.370 264.485,304.819 266.149,304.098 266.467 C 303.931 266.540,302.192 268.580,300.232 271.000 C 295.397 276.969,295.680 276.780,291.527 276.791 C 287.050 276.803,286.998 276.667,289.193 270.694 C 291.220 265.180,291.253 265.116,292.439 264.506 C 293.439 263.992,301.811 263.800,303.500 264.252 M260.826 265.214 C 261.611 265.634,262.028 273.619,261.357 275.367 C 261.060 276.142,251.049 276.326,250.578 275.565 C 250.039 274.692,250.289 265.516,250.863 265.153 C 251.629 264.667,259.900 264.718,260.826 265.214 M140.154 281.223 C 147.342 283.070,150.020 284.730,151.731 288.400 C 152.529 290.109,152.582 291.026,152.785 306.600 C 152.969 320.646,153.093 323.172,153.645 324.200 C 154.765 326.284,154.479 326.401,148.267 326.394 C 142.122 326.387,141.851 326.321,141.463 324.736 L 141.203 323.672 138.501 325.054 C 126.363 331.262,113.060 325.284,113.015 313.600 C 112.983 305.440,117.381 301.168,128.200 298.852 C 129.300 298.616,131.550 298.134,133.200 297.781 C 140.786 296.157,141.442 295.849,141.287 293.990 C 140.801 288.140,128.572 288.366,126.451 294.263 L 125.755 296.200 122.177 296.051 C 120.210 295.969,117.790 295.783,116.800 295.637 L 115.000 295.373 115.060 293.543 C 115.343 284.884,128.762 278.296,140.154 281.223 M186.939 281.367 C 192.096 282.711,196.469 285.829,199.272 290.162 C 201.469 293.558,201.413 293.700,197.100 295.739 C 191.474 298.399,191.450 298.400,190.265 296.200 C 186.490 289.191,176.338 289.406,172.970 296.566 C 171.292 300.136,170.953 308.665,172.430 310.180 C 172.633 310.389,172.800 310.820,172.800 311.139 C 172.800 311.457,173.446 312.505,174.235 313.468 C 178.889 319.149,187.092 318.062,190.829 311.270 C 192.023 309.098,192.893 308.817,194.909 309.949 C 195.684 310.384,197.416 311.312,198.759 312.011 C 201.626 313.503,201.824 314.240,200.148 317.165 C 194.628 326.797,181.574 330.447,171.436 325.193 C 155.343 316.853,156.000 290.890,172.502 283.059 C 174.193 282.257,175.987 281.597,176.489 281.594 C 176.990 281.591,177.670 281.413,178.000 281.200 C 178.901 280.618,184.462 280.722,186.939 281.367 M230.468 281.447 C 235.688 282.781,239.530 285.466,242.558 289.897 C 244.806 293.188,244.770 293.908,242.297 294.995 C 241.364 295.405,239.486 296.261,238.124 296.897 C 235.593 298.079,234.000 297.986,234.000 296.658 C 234.000 295.700,231.207 292.875,229.390 291.995 C 219.985 287.442,211.543 298.993,215.937 310.404 C 219.286 319.101,230.402 319.405,234.527 310.913 C 235.595 308.716,235.927 308.736,240.808 311.283 C 245.473 313.717,245.499 313.784,243.233 317.577 C 241.044 321.241,235.536 326.000,233.486 326.000 C 233.182 326.000,232.805 326.129,232.647 326.286 C 229.271 329.663,215.793 327.127,210.563 322.132 C 193.543 305.874,208.268 275.775,230.468 281.447 M297.800 281.519 C 320.378 287.193,320.737 321.195,298.280 327.000 C 295.559 327.704,289.003 327.791,286.646 327.156 C 283.790 326.386,280.012 324.761,280.005 324.300 C 280.002 324.135,279.750 324.000,279.445 324.000 C 276.817 324.000,270.883 314.890,269.935 309.400 C 268.908 303.450,269.160 300.360,271.108 295.000 C 274.898 284.572,286.543 278.691,297.800 281.519 M350.800 281.361 C 352.714 281.948,354.869 282.846,355.200 283.194 C 355.310 283.310,356.048 283.887,356.841 284.478 C 358.361 285.610,359.967 288.526,360.762 291.600 C 361.089 292.865,361.194 298.277,361.114 309.800 L 361.000 326.200 356.056 326.313 C 349.348 326.466,350.000 328.076,350.000 311.363 C 350.000 296.094,349.948 295.698,347.657 293.597 C 344.487 290.689,337.855 292.027,335.807 295.987 C 334.106 299.275,334.012 300.171,334.006 313.051 C 333.999 327.827,334.622 326.465,327.944 326.313 L 323.000 326.200 323.000 304.200 L 323.000 282.200 327.859 282.088 C 333.358 281.961,334.000 282.227,334.000 284.626 L 334.000 285.995 335.852 284.581 C 340.123 281.321,346.320 279.986,350.800 281.361 M109.520 281.680 C 110.202 282.362,110.184 291.757,109.500 292.296 C 109.225 292.513,108.066 292.795,106.925 292.923 C 98.223 293.901,96.419 297.394,96.360 313.373 C 96.308 327.479,96.845 326.174,91.039 326.313 C 84.507 326.469,85.200 329.097,85.200 304.165 C 85.200 279.302,84.503 282.000,90.925 282.000 C 95.563 282.000,95.880 282.152,96.272 284.564 C 96.548 286.265,96.760 286.320,97.990 285.011 C 100.464 282.377,108.031 280.191,109.520 281.680 M260.971 282.629 C 261.864 283.521,261.934 325.225,261.044 325.964 C 260.672 326.272,258.847 326.388,255.544 326.313 L 250.600 326.200 250.496 304.645 C 250.422 289.060,250.518 282.939,250.845 282.545 C 251.542 281.706,260.119 281.776,260.971 282.629 M287.372 292.131 C 280.482 295.411,278.845 307.628,284.465 313.814 C 289.651 319.521,299.291 317.749,301.967 310.597 C 306.339 298.911,297.260 287.424,287.372 292.131 M139.526 305.815 C 138.716 306.104,136.466 306.644,134.526 307.015 C 126.605 308.532,124.800 309.623,124.800 312.893 C 124.800 316.932,129.534 318.764,135.384 316.989 C 139.877 315.627,141.288 313.859,141.527 309.296 C 141.730 305.435,141.537 305.100,139.526 305.815 " stroke="none" fill="#f9e12c" fill-rule="evenodd"></path><path id="path1" d="M0.000 200.400 L 0.000 400.800 200.000 400.800 L 400.000 400.800 400.000 200.400 L 400.000 0.000 200.000 0.000 L 0.000 0.000 0.000 200.400 M392.413 8.635 C 393.137 10.538,392.729 196.348,392.000 196.808 C 391.133 197.357,9.398 197.334,8.374 196.786 C 7.589 196.366,7.085 8.648,7.867 7.867 C 8.013 7.720,94.508 7.600,200.077 7.600 L 392.020 7.600 392.413 8.635 M40.499 104.100 L 40.600 167.800 51.800 167.800 L 63.000 167.800 63.200 140.800 L 63.400 113.800 89.600 113.600 L 115.800 113.400 115.907 103.700 L 116.014 94.000 90.107 93.994 C 75.858 93.991,63.973 93.844,63.695 93.667 C 63.300 93.416,63.213 89.887,63.295 77.374 L 63.400 61.400 94.100 61.298 L 124.800 61.195 124.800 50.798 L 124.800 40.400 82.599 40.400 L 40.398 40.400 40.499 104.100 M392.200 298.600 L 392.200 393.000 200.000 393.000 L 7.800 393.000 7.697 299.000 C 7.641 247.300,7.681 204.775,7.785 204.500 C 7.937 204.100,46.607 204.019,200.088 204.100 L 392.200 204.200 392.200 298.600 M40.400 295.400 L 40.400 325.600 45.600 325.600 L 50.800 325.600 50.800 313.262 C 50.800 301.858,50.855 300.874,51.525 300.268 C 52.158 299.695,53.799 299.598,64.425 299.506 L 76.600 299.400 76.714 295.100 L 76.827 290.800 64.476 290.800 C 53.018 290.800,52.076 290.747,51.462 290.069 C 50.621 289.140,50.461 276.099,51.280 275.280 C 51.634 274.926,55.237 274.799,64.980 274.795 C 81.691 274.788,80.000 275.355,80.000 269.753 L 80.000 265.200 60.200 265.200 L 40.400 265.200 40.400 295.400 M290.459 269.900 C 289.501 272.485,288.652 274.825,288.571 275.100 C 288.462 275.473,289.319 275.600,291.951 275.600 L 295.478 275.600 298.304 272.100 C 299.858 270.175,301.679 267.949,302.351 267.153 C 303.974 265.228,303.906 265.200,297.633 265.200 L 292.200 265.200 290.459 269.900 M251.200 270.344 C 251.200 275.922,250.912 275.603,255.933 275.594 C 260.617 275.586,260.449 275.787,260.314 270.368 L 260.200 265.800 255.700 265.687 L 251.200 265.574 251.200 270.344 M129.000 282.000 C 125.223 282.458,121.453 284.184,118.963 286.594 C 117.178 288.322,115.010 293.974,115.823 294.780 C 116.031 294.986,118.000 295.175,120.200 295.202 C 125.830 295.269,125.600 295.305,125.600 294.362 C 125.600 288.023,140.088 286.977,141.947 293.181 C 142.801 296.031,142.217 296.600,137.400 297.612 C 136.520 297.797,134.450 298.247,132.800 298.613 C 131.150 298.979,129.080 299.427,128.200 299.609 C 118.341 301.649,113.624 306.108,113.606 313.406 C 113.578 324.647,127.619 330.512,138.986 324.008 C 141.602 322.511,141.518 322.506,142.226 324.200 L 142.811 325.600 148.005 325.600 C 150.862 325.600,153.200 325.504,153.200 325.387 C 153.200 325.270,152.930 324.528,152.600 323.738 C 152.102 322.546,152.000 319.691,152.000 306.945 C 152.000 289.270,151.990 289.203,148.988 286.162 C 145.261 282.387,138.104 280.897,129.000 282.000 M178.800 281.857 C 158.063 284.495,153.724 315.628,172.797 324.931 L 176.200 326.591 181.600 326.556 C 187.237 326.520,187.834 326.389,191.800 324.325 C 195.589 322.353,200.832 315.992,200.231 314.097 C 200.109 313.714,199.422 313.144,198.705 312.831 C 197.987 312.518,196.740 311.851,195.933 311.347 C 193.189 309.635,192.651 309.697,191.403 311.871 C 183.775 325.162,167.043 315.244,171.012 299.784 C 173.820 288.846,186.877 286.551,191.283 296.221 C 191.823 297.407,191.813 297.406,194.025 296.361 C 200.895 293.116,200.579 293.461,198.946 290.993 C 194.414 284.141,187.062 280.807,178.800 281.857 M221.800 281.973 C 200.601 285.225,197.496 318.090,217.674 325.646 C 226.864 329.088,239.424 324.489,243.145 316.321 C 244.265 313.862,244.151 313.694,240.011 311.656 C 236.129 309.745,235.943 309.754,234.919 311.917 C 232.538 316.944,226.795 319.184,221.432 317.178 C 211.744 313.553,211.515 294.972,221.108 290.923 C 225.665 288.999,234.400 292.219,234.400 295.823 C 234.400 297.045,235.553 297.310,237.296 296.489 C 244.783 292.964,244.369 293.622,241.500 289.812 C 236.748 283.502,229.815 280.743,221.800 281.973 M288.000 281.986 C 265.985 285.296,263.729 318.288,285.000 325.864 C 287.548 326.771,297.015 326.903,299.200 326.061 C 303.521 324.396,310.000 319.753,310.000 318.321 C 310.000 318.164,310.418 317.420,310.929 316.667 C 313.575 312.767,314.770 302.744,313.224 297.414 C 310.055 286.488,299.795 280.213,288.000 281.986 M343.600 281.977 C 340.255 282.557,336.931 284.250,335.062 286.326 C 334.184 287.303,333.202 287.056,333.195 285.857 C 333.178 283.220,333.138 283.200,327.953 283.200 L 323.200 283.200 323.200 304.400 L 323.200 325.600 327.982 325.600 L 332.764 325.600 332.974 324.300 C 333.089 323.585,333.233 317.583,333.292 310.961 C 333.364 302.884,333.546 298.738,333.845 298.361 C 334.090 298.053,334.404 297.319,334.545 296.731 C 335.536 292.574,342.740 289.766,346.702 291.993 C 350.580 294.172,350.906 295.649,351.100 311.912 L 351.264 325.625 355.932 325.512 L 360.600 325.400 360.725 311.200 C 360.853 296.692,360.645 293.610,359.259 289.400 C 357.514 284.102,350.507 280.781,343.600 281.977 M102.820 282.990 C 100.946 283.693,99.700 284.511,98.270 285.979 C 95.619 288.700,95.200 288.562,95.200 284.967 C 95.200 283.841,95.019 283.186,94.700 283.162 C 92.301 282.978,86.643 283.197,86.355 283.485 C 86.145 283.695,86.036 292.598,86.096 304.624 L 86.200 325.400 90.650 325.513 L 95.100 325.625 95.305 313.713 C 95.595 296.898,97.172 293.756,106.073 292.266 L 109.000 291.776 109.000 286.988 L 109.000 282.200 107.200 282.111 C 106.082 282.056,104.423 282.389,102.820 282.990 M251.598 283.133 C 251.341 283.220,251.200 290.734,251.200 304.433 L 251.200 325.600 255.800 325.600 L 260.400 325.600 260.400 304.400 C 260.400 287.718,260.293 283.196,259.900 283.180 C 256.872 283.056,251.912 283.028,251.598 283.133 M296.041 291.008 C 302.516 293.214,305.978 303.789,302.625 311.120 C 298.395 320.370,286.374 320.415,281.935 311.197 C 276.340 299.577,284.964 287.234,296.041 291.008 M142.322 307.600 C 142.608 314.663,138.816 318.400,131.362 318.400 C 126.531 318.400,124.000 316.543,124.000 313.000 C 124.000 309.415,126.239 307.784,132.823 306.575 C 134.900 306.193,137.500 305.566,138.600 305.181 C 141.983 303.998,142.181 304.127,142.322 307.600 " stroke="none" fill="#1e1505" fill-rule="evenodd"></path><path id="path2" d="M8.185 8.500 C 8.081 8.775,8.041 51.120,8.097 102.600 L 8.200 196.200 200.000 196.200 L 391.800 196.200 391.800 102.200 L 391.800 8.200 200.088 8.100 C 46.927 8.019,8.337 8.100,8.185 8.500 M391.200 102.200 L 391.200 195.600 200.000 195.600 L 8.800 195.600 8.800 102.467 C 8.800 51.243,8.920 9.213,9.067 9.067 C 9.213 8.920,95.253 8.800,200.267 8.800 L 391.200 8.800 391.200 102.200 M39.785 40.100 C 39.680 40.375,39.641 69.490,39.697 104.800 L 39.800 169.000 51.352 169.106 C 59.541 169.182,63.063 169.080,63.452 168.757 C 63.906 168.380,64.000 163.763,64.000 141.800 C 64.000 120.102,64.097 115.217,64.537 114.852 C 64.918 114.536,72.670 114.376,91.037 114.303 L 117.000 114.200 117.107 104.027 C 117.179 97.214,117.073 93.713,116.787 93.427 C 116.498 93.137,107.978 92.936,90.280 92.800 L 64.200 92.600 64.200 77.600 L 64.200 62.600 94.639 62.400 C 119.629 62.236,125.196 62.102,125.739 61.651 C 126.413 61.091,126.789 41.878,126.157 40.233 C 125.830 39.381,40.108 39.249,39.785 40.100 M125.507 50.572 C 125.590 58.603,125.499 61.017,125.107 61.266 C 124.828 61.443,110.873 61.591,94.095 61.594 L 63.591 61.600 63.695 77.500 L 63.800 93.400 90.000 93.600 L 116.200 93.800 116.200 103.800 L 116.200 113.800 90.000 114.000 L 63.800 114.200 63.593 141.200 C 63.479 156.050,63.344 168.248,63.293 168.306 C 63.242 168.365,58.025 168.365,51.700 168.306 L 40.200 168.200 40.097 104.600 C 40.041 69.620,40.080 40.774,40.185 40.498 C 40.337 40.099,49.090 40.017,82.888 40.098 L 125.400 40.200 125.507 50.572 " stroke="none" fill="#c4c4c4" fill-rule="evenodd"></path><path id="path3" d="M9.067 9.067 C 8.920 9.213,8.800 51.243,8.800 102.467 L 8.800 195.600 200.000 195.600 L 391.200 195.600 391.200 102.200 L 391.200 8.800 200.267 8.800 C 95.253 8.800,9.213 8.920,9.067 9.067 M126.157 40.233 C 126.789 41.878,126.413 61.091,125.739 61.651 C 125.196 62.102,119.629 62.236,94.639 62.400 L 64.200 62.600 64.200 77.600 L 64.200 92.600 90.280 92.800 C 107.978 92.936,116.498 93.137,116.787 93.427 C 117.073 93.713,117.179 97.214,117.107 104.027 L 117.000 114.200 91.037 114.303 C 72.670 114.376,64.918 114.536,64.537 114.852 C 64.097 115.217,64.000 120.102,64.000 141.800 C 64.000 163.763,63.906 168.380,63.452 168.757 C 63.063 169.080,59.541 169.182,51.352 169.106 L 39.800 169.000 39.697 104.800 C 39.641 69.490,39.680 40.375,39.785 40.100 C 40.108 39.249,125.830 39.381,126.157 40.233 " stroke="none" fill="#fbfbfb" fill-rule="evenodd"></path><path id="path4" d="M7.867 7.867 C 7.085 8.648,7.589 196.366,8.374 196.786 C 9.398 197.334,391.133 197.357,392.000 196.808 C 392.729 196.348,393.137 10.538,392.413 8.635 L 392.020 7.600 200.077 7.600 C 94.508 7.600,8.013 7.720,7.867 7.867 M391.800 102.200 L 391.800 196.200 200.000 196.200 L 8.200 196.200 8.097 102.600 C 8.041 51.120,8.081 8.775,8.185 8.500 C 8.337 8.100,46.927 8.019,200.088 8.100 L 391.800 8.200 391.800 102.200 M40.185 40.498 C 40.080 40.774,40.041 69.620,40.097 104.600 L 40.200 168.200 51.700 168.306 C 58.025 168.365,63.242 168.365,63.293 168.306 C 63.344 168.248,63.479 156.050,63.593 141.200 L 63.800 114.200 90.000 114.000 L 116.200 113.800 116.200 103.800 L 116.200 93.800 90.000 93.600 L 63.800 93.400 63.695 77.500 L 63.591 61.600 94.095 61.594 C 110.873 61.591,124.828 61.443,125.107 61.266 C 125.499 61.017,125.590 58.603,125.507 50.572 L 125.400 40.200 82.888 40.098 C 49.090 40.017,40.337 40.099,40.185 40.498 M124.800 50.798 L 124.800 61.195 94.100 61.298 L 63.400 61.400 63.295 77.374 C 63.213 89.887,63.300 93.416,63.695 93.667 C 63.973 93.844,75.858 93.991,90.107 93.994 L 116.014 94.000 115.907 103.700 L 115.800 113.400 89.600 113.600 L 63.400 113.800 63.200 140.800 L 63.000 167.800 51.800 167.800 L 40.600 167.800 40.499 104.100 L 40.398 40.400 82.599 40.400 L 124.800 40.400 124.800 50.798 M7.785 204.500 C 7.681 204.775,7.641 247.300,7.697 299.000 L 7.800 393.000 200.000 393.000 L 392.200 393.000 392.200 298.600 L 392.200 204.200 200.088 204.100 C 46.607 204.019,7.937 204.100,7.785 204.500 M391.603 205.606 C 392.203 206.727,391.982 391.379,391.380 391.980 C 391.087 392.273,332.995 392.370,199.780 392.300 L 8.600 392.200 8.497 299.000 C 8.441 247.740,8.480 205.575,8.585 205.300 C 8.737 204.901,47.383 204.800,199.973 204.800 L 391.172 204.800 391.603 205.606 M40.243 264.614 C 39.587 265.270,39.203 324.099,39.843 325.767 C 40.249 326.827,51.013 326.697,51.586 325.626 C 51.845 325.141,52.000 320.289,52.000 312.626 L 52.000 300.400 64.600 300.400 L 77.200 300.400 77.200 295.200 L 77.200 290.000 65.500 289.995 C 50.238 289.987,52.000 290.985,52.000 282.353 L 52.000 275.200 66.382 275.200 L 80.764 275.200 81.021 273.827 C 81.361 272.015,81.092 264.957,80.667 264.533 C 79.959 263.826,40.953 263.905,40.243 264.614 M292.439 264.506 C 291.253 265.116,291.220 265.180,289.193 270.694 C 286.998 276.667,287.050 276.803,291.527 276.791 C 295.680 276.780,295.397 276.969,300.232 271.000 C 302.192 268.580,303.931 266.540,304.098 266.467 C 304.819 266.149,304.370 264.485,303.500 264.252 C 301.811 263.800,293.439 263.992,292.439 264.506 M250.863 265.153 C 250.289 265.516,250.039 274.692,250.578 275.565 C 251.049 276.326,261.060 276.142,261.357 275.367 C 262.028 273.619,261.611 265.634,260.826 265.214 C 259.900 264.718,251.629 264.667,250.863 265.153 M80.000 269.753 C 80.000 275.355,81.691 274.788,64.980 274.795 C 55.237 274.799,51.634 274.926,51.280 275.280 C 50.461 276.099,50.621 289.140,51.462 290.069 C 52.076 290.747,53.018 290.800,64.476 290.800 L 76.827 290.800 76.714 295.100 L 76.600 299.400 64.425 299.506 C 53.799 299.598,52.158 299.695,51.525 300.268 C 50.855 300.874,50.800 301.858,50.800 313.262 L 50.800 325.600 45.600 325.600 L 40.400 325.600 40.400 295.400 L 40.400 265.200 60.200 265.200 L 80.000 265.200 80.000 269.753 M303.319 265.453 C 303.458 265.591,303.022 266.356,302.351 267.153 C 301.679 267.949,299.858 270.175,298.304 272.100 L 295.478 275.600 291.951 275.600 C 289.319 275.600,288.462 275.473,288.571 275.100 C 288.652 274.825,289.501 272.485,290.459 269.900 L 292.200 265.200 297.633 265.200 C 300.622 265.200,303.180 265.314,303.319 265.453 M260.314 270.368 C 260.449 275.787,260.617 275.586,255.933 275.594 C 250.912 275.603,251.200 275.922,251.200 270.344 L 251.200 265.574 255.700 265.687 L 260.200 265.800 260.314 270.368 M127.563 281.394 C 120.533 282.933,115.239 288.078,115.060 293.543 L 115.000 295.373 116.800 295.637 C 117.790 295.783,120.210 295.969,122.177 296.051 L 125.755 296.200 126.451 294.263 C 128.572 288.366,140.801 288.140,141.287 293.990 C 141.442 295.849,140.786 296.157,133.200 297.781 C 131.550 298.134,129.300 298.616,128.200 298.852 C 117.381 301.168,112.983 305.440,113.015 313.600 C 113.060 325.284,126.363 331.262,138.501 325.054 L 141.203 323.672 141.463 324.736 C 141.851 326.321,142.122 326.387,148.267 326.394 C 154.479 326.401,154.765 326.284,153.645 324.200 C 153.093 323.172,152.969 320.646,152.785 306.600 C 152.498 284.631,152.363 284.360,140.154 281.223 C 137.997 280.669,130.404 280.772,127.563 281.394 M178.000 281.200 C 177.670 281.413,176.990 281.591,176.489 281.594 C 175.987 281.597,174.193 282.257,172.502 283.059 C 158.205 289.844,155.192 310.581,166.864 321.865 C 176.501 331.182,193.490 328.782,200.148 317.165 C 201.824 314.240,201.626 313.503,198.759 312.011 C 197.416 311.312,195.684 310.384,194.909 309.949 C 192.893 308.817,192.023 309.098,190.829 311.270 C 187.092 318.062,178.889 319.149,174.235 313.468 C 173.446 312.505,172.800 311.457,172.800 311.139 C 172.800 310.820,172.633 310.389,172.430 310.180 C 170.953 308.665,171.292 300.136,172.970 296.566 C 176.338 289.406,186.490 289.191,190.265 296.200 C 191.450 298.400,191.474 298.399,197.100 295.739 C 201.413 293.700,201.469 293.558,199.272 290.162 C 196.469 285.829,192.096 282.711,186.939 281.367 C 184.462 280.722,178.901 280.618,178.000 281.200 M219.762 281.571 C 198.348 287.577,197.415 319.527,218.445 326.642 C 222.530 328.024,231.125 327.809,232.647 326.286 C 232.805 326.129,233.182 326.000,233.486 326.000 C 235.536 326.000,241.044 321.241,243.233 317.577 C 245.499 313.784,245.473 313.717,240.808 311.283 C 235.927 308.736,235.595 308.716,234.527 310.913 C 230.402 319.405,219.286 319.101,215.937 310.404 C 211.543 298.993,219.985 287.442,229.390 291.995 C 231.207 292.875,234.000 295.700,234.000 296.658 C 234.000 297.986,235.593 298.079,238.124 296.897 C 239.486 296.261,241.364 295.405,242.297 294.995 C 244.770 293.908,244.806 293.188,242.558 289.897 C 237.503 282.500,228.359 279.159,219.762 281.571 M285.800 281.648 C 276.839 284.198,271.347 290.637,269.590 300.653 C 268.656 305.976,270.198 313.118,273.300 317.842 C 274.821 320.159,278.654 324.000,279.445 324.000 C 279.750 324.000,280.002 324.135,280.005 324.300 C 280.009 324.568,281.997 325.566,284.200 326.407 C 295.632 330.769,308.939 324.862,313.280 313.498 C 320.368 294.945,304.343 276.371,285.800 281.648 M342.400 281.410 C 339.600 282.205,337.862 283.047,335.852 284.581 L 334.000 285.995 334.000 284.626 C 334.000 282.227,333.358 281.961,327.859 282.088 L 323.000 282.200 323.000 304.200 L 323.000 326.200 327.944 326.313 C 334.622 326.465,333.999 327.827,334.006 313.051 C 334.012 300.171,334.106 299.275,335.807 295.987 C 337.855 292.027,344.487 290.689,347.657 293.597 C 349.948 295.698,350.000 296.094,350.000 311.363 C 350.000 328.076,349.348 326.466,356.056 326.313 L 361.000 326.200 361.114 309.800 C 361.194 298.277,361.089 292.865,360.762 291.600 C 359.967 288.526,358.361 285.610,356.841 284.478 C 356.048 283.887,355.310 283.310,355.200 283.194 C 353.394 281.294,346.295 280.304,342.400 281.410 M104.777 281.603 C 102.598 281.972,99.279 283.639,97.990 285.011 C 96.760 286.320,96.548 286.265,96.272 284.564 C 95.880 282.152,95.563 282.000,90.925 282.000 C 84.503 282.000,85.200 279.302,85.200 304.165 C 85.200 329.097,84.507 326.469,91.039 326.313 C 96.845 326.174,96.308 327.479,96.360 313.373 C 96.419 297.394,98.223 293.901,106.925 292.923 C 109.995 292.578,110.000 292.569,110.000 287.031 C 110.000 280.825,109.912 280.733,104.777 281.603 M139.011 281.975 C 143.703 282.515,146.579 283.722,148.988 286.162 C 151.990 289.203,152.000 289.270,152.000 306.945 C 152.000 319.691,152.102 322.546,152.600 323.738 C 152.930 324.528,153.200 325.270,153.200 325.387 C 153.200 325.504,150.862 325.600,148.005 325.600 L 142.811 325.600 142.226 324.200 C 141.518 322.506,141.602 322.511,138.986 324.008 C 133.521 327.135,125.230 327.399,120.069 324.611 C 112.385 320.460,111.341 309.592,118.074 303.830 C 120.543 301.716,123.034 300.678,128.200 299.609 C 129.080 299.427,131.150 298.979,132.800 298.613 C 134.450 298.247,136.520 297.797,137.400 297.612 C 142.217 296.600,142.801 296.031,141.947 293.181 C 140.088 286.977,125.600 288.023,125.600 294.362 C 125.600 295.305,125.830 295.269,120.200 295.202 C 115.425 295.144,115.283 295.047,115.984 292.303 C 118.057 284.188,126.260 280.509,139.011 281.975 M188.600 282.669 C 192.395 283.901,196.373 287.102,198.946 290.993 C 200.579 293.461,200.895 293.116,194.025 296.361 C 191.813 297.406,191.823 297.407,191.283 296.221 C 187.717 288.397,175.836 288.366,172.196 296.173 C 164.690 312.273,182.716 327.006,191.403 311.871 C 192.651 309.697,193.189 309.635,195.933 311.347 C 196.740 311.851,197.987 312.518,198.705 312.831 C 202.849 314.636,196.632 322.547,188.400 325.944 C 187.434 326.342,185.325 326.532,181.600 326.556 L 176.200 326.591 172.797 324.931 C 148.750 313.202,163.246 274.435,188.600 282.669 M232.960 283.029 C 236.322 284.377,239.022 286.521,241.500 289.812 C 244.103 293.268,244.103 293.268,241.300 294.597 C 235.370 297.408,235.625 297.319,234.996 296.797 C 234.668 296.525,234.400 296.086,234.400 295.823 C 234.400 292.219,225.665 288.999,221.108 290.923 C 211.515 294.972,211.744 313.553,221.432 317.178 C 226.795 319.184,232.538 316.944,234.919 311.917 C 235.943 309.754,236.129 309.745,240.011 311.656 C 244.151 313.694,244.265 313.862,243.145 316.321 C 239.424 324.489,226.864 329.088,217.674 325.646 C 199.336 318.779,199.581 289.902,218.037 282.944 C 222.258 281.353,228.872 281.391,232.960 283.029 M299.293 282.763 C 306.239 285.153,311.172 290.341,313.224 297.414 C 314.770 302.744,313.575 312.767,310.929 316.667 C 310.418 317.420,310.000 318.164,310.000 318.321 C 310.000 319.753,303.521 324.396,299.200 326.061 C 297.015 326.903,287.548 326.771,285.000 325.864 C 263.729 318.288,265.985 285.296,288.000 281.986 C 291.147 281.513,296.787 281.901,299.293 282.763 M353.035 282.999 C 359.877 286.024,360.913 289.823,360.725 311.200 L 360.600 325.400 355.932 325.512 L 351.264 325.625 351.100 311.912 C 350.906 295.649,350.580 294.172,346.702 291.993 C 342.740 289.766,335.536 292.574,334.545 296.731 C 334.404 297.319,334.090 298.053,333.845 298.361 C 333.546 298.738,333.364 302.884,333.292 310.961 C 333.233 317.583,333.089 323.585,332.974 324.300 L 332.764 325.600 327.982 325.600 L 323.200 325.600 323.200 304.400 L 323.200 283.200 327.953 283.200 C 333.138 283.200,333.178 283.220,333.195 285.857 C 333.202 287.056,334.184 287.303,335.062 286.326 C 338.951 282.006,347.296 280.460,353.035 282.999 M109.000 286.988 L 109.000 291.776 106.073 292.266 C 97.172 293.756,95.595 296.898,95.305 313.713 L 95.100 325.625 90.650 325.513 L 86.200 325.400 86.096 304.624 C 86.036 292.598,86.145 283.695,86.355 283.485 C 86.643 283.197,92.301 282.978,94.700 283.162 C 95.019 283.186,95.200 283.841,95.200 284.967 C 95.200 288.562,95.619 288.700,98.270 285.979 C 100.608 283.579,104.324 281.970,107.200 282.111 L 109.000 282.200 109.000 286.988 M250.845 282.545 C 250.518 282.939,250.422 289.060,250.496 304.645 L 250.600 326.200 255.544 326.313 C 258.847 326.388,260.672 326.272,261.044 325.964 C 261.934 325.225,261.864 283.521,260.971 282.629 C 260.119 281.776,251.542 281.706,250.845 282.545 M259.900 283.180 C 260.293 283.196,260.400 287.718,260.400 304.400 L 260.400 325.600 255.800 325.600 L 251.200 325.600 251.200 304.433 C 251.200 290.734,251.341 283.220,251.598 283.133 C 251.912 283.028,256.872 283.056,259.900 283.180 M287.896 290.972 C 282.734 292.814,279.346 299.711,280.416 306.200 C 283.222 323.223,303.840 321.633,303.758 304.400 C 303.710 294.286,296.266 287.985,287.896 290.972 M296.525 292.174 C 302.238 294.949,304.701 303.289,301.967 310.597 C 298.648 319.466,286.309 319.388,282.286 310.473 C 277.331 299.493,286.729 287.416,296.525 292.174 M138.600 305.181 C 137.500 305.566,134.900 306.193,132.823 306.575 C 126.239 307.784,124.000 309.415,124.000 313.000 C 124.000 316.543,126.531 318.400,131.362 318.400 C 138.816 318.400,142.608 314.663,142.322 307.600 C 142.181 304.127,141.983 303.998,138.600 305.181 M141.527 309.296 C 141.288 313.859,139.877 315.627,135.384 316.989 C 129.534 318.764,124.800 316.932,124.800 312.893 C 124.800 309.623,126.605 308.532,134.526 307.015 C 136.466 306.644,138.716 306.104,139.526 305.815 C 141.537 305.100,141.730 305.435,141.527 309.296 " stroke="none" fill="#84741c" fill-rule="evenodd"></path></g></svg>