<?xml version="1.0" encoding="utf-8"?>
<!-- Generator: Adobe Illustrator 24.2.0, SVG Export Plug-In . SVG Version: 6.00 Build 0)  -->
<svg version="1.1" id="Capa_1" xmlns="http://www.w3.org/2000/svg" xmlns:xlink="http://www.w3.org/1999/xlink" x="0px" y="0px"
	 viewBox="0 0 189.2 138.9" style="enable-background:new 0 0 189.2 138.9;" xml:space="preserve">
<style type="text/css">
	.st0{fill:#F93549;}
</style>
<g>
	<path class="st0" d="M9.1,121.1c0-6.4,4.3-10.8,10.4-10.8c5,0,8,3.2,8,8.3c0,6.4-4.3,10.9-10.2,10.9
		C12.3,129.5,9.1,126.3,9.1,121.1 M22.8,118.8c0-3.1-1.5-4.6-3.8-4.6c-3.1,0-5.1,2.8-5.1,6.7c0,3.1,1.6,4.7,3.9,4.7
		C20.7,125.6,22.8,122.8,22.8,118.8"/>
	<path class="st0" d="M39.6,125.8c2.1,0,4.1-0.6,5.8-1.6l-1.4,3.9c-1.7,0.9-3.7,1.5-5.8,1.5c-5.1,0-8-3.4-8-8.2c0-6,4.6-11,10.4-11
		c3.7,0,6,1.9,6,4.8c0,3.4-2.3,5.2-7.3,5.5l-4.4,0.3C34.9,124.1,36.3,125.8,39.6,125.8 M35.4,117.9l3.2-0.2c2.7-0.2,4-1,4-2.4
		c0-1.1-0.9-1.6-2.2-1.6C38.3,113.6,36.3,115.2,35.4,117.9"/>
	<path class="st0" d="M49.2,120.7c0-6,4.5-10.4,10.4-10.4c1.5,0,3.2,0.3,4.5,0.7l0.2,3.9c-1.4-0.5-2.9-0.7-4-0.7
		c-3.8,0-6.4,2.6-6.4,6.3c0,3.4,2.1,5.1,5.3,5.1c1.5,0,3.2-0.4,4.7-1.2l-1.1,4c-1.6,0.7-3,1-4.7,1C52.7,129.5,49.2,125.9,49.2,120.7
		"/>
	<path class="st0" d="M85,115.1c0,0.8-0.2,2.1-0.3,3.4l-1.2,10.6h-4.6l1.2-10.5c0.1-0.8,0.2-1.4,0.2-1.8c0-1.5-0.7-2.5-2-2.5
		c-2.5,0-5.3,3.4-5.9,9.6l-0.6,5.2h-4.6l2.9-26.7l4.7-0.4l-2,13.3c1.8-3.2,4.2-4.9,7.2-4.9C83.2,110.3,85,112.2,85,115.1"/>
	<path class="st0" d="M88.4,128.5l-0.2-3.9c1.9,0.8,3.7,1.2,5.5,1.2c1.9,0,3-0.8,3-2.2c0-2.9-6.9-2.7-6.9-8c0-3.1,2.7-5.4,7.2-5.4
		c1.5,0,3.1,0.3,4.3,0.6l0.2,3.6c-1.9-0.5-3.2-0.6-4.3-0.6c-1.9,0-2.9,0.6-2.9,1.6c0,2.7,7,2.5,7,7.9c0,3.9-3,6.2-7.2,6.2
		C92.1,129.5,90.1,129.1,88.4,128.5"/>
	<polygon class="st0" points="107.9,102.4 112.4,102.4 109.6,129 105,129 	"/>
	<path class="st0" d="M124.2,125.8c2.1,0,4.1-0.6,5.9-1.6l-1.4,3.9c-1.7,0.9-3.7,1.5-5.9,1.5c-5.1,0-8-3.4-8-8.2c0-6,4.6-11,10.4-11
		c3.7,0,6,1.9,6,4.8c0,3.4-2.3,5.2-7.4,5.5l-4.4,0.3C119.5,124.1,120.9,125.8,124.2,125.8 M120,117.9l3.2-0.2c2.7-0.2,4-1,4-2.4
		c0-1.1-0.9-1.6-2.2-1.6C122.9,113.6,120.9,115.2,120,117.9"/>
	<path class="st0" d="M133.2,126.8c0-1.8,1.3-3.2,3.1-3.2c1.5,0,2.7,1.2,2.7,2.7c0,1.9-1.3,3.2-3.1,3.2
		C134.3,129.5,133.2,128.4,133.2,126.8"/>
	<path class="st0" d="M161.4,118.1c0,6.4-3.8,11.4-9.7,11.4c-1.6,0-3.2-0.4-4.4-1.1l-0.5,8l-4.6-0.7l2.8-25h4.3l-1.1,5.8
		c2.2-4.5,4.9-6.2,7.6-6.2C159.1,110.3,161.4,113.2,161.4,118.1 M156.7,117.9c0-2.7-0.8-4.2-2.2-4.2c-2.4,0-5.6,4.1-6.8,11.7
		c1,0.7,2.1,1,3.2,1C154.2,126.4,156.7,122.8,156.7,117.9"/>
	<path class="st0" d="M173.5,125.8c2.1,0,4.1-0.6,5.9-1.6L178,128c-1.7,0.9-3.7,1.5-5.9,1.5c-5.1,0-8-3.4-8-8.2c0-6,4.6-11,10.4-11
		c3.7,0,6,1.9,6,4.8c0,3.4-2.3,5.2-7.4,5.5l-4.4,0.3C168.8,124.1,170.2,125.8,173.5,125.8 M169.3,117.9l3.2-0.2c2.7-0.2,4-1,4-2.4
		c0-1.1-0.9-1.6-2.2-1.6C172.1,113.6,170.1,115.2,169.3,117.9"/>
	<path class="st0" d="M138.9,4c-21.7,0-39.7,16-43.3,37.1c-3.8-21-22.2-36.8-44.3-36.8c-24.9,0-45,20.2-45,45s20.2,45,45,45
		c21.2,0,39-14.7,43.8-34.5C99.9,79.5,117.2,94,137.9,94c17.2,0,33.2-10.1,40.5-24.8h-20.7c-3.7,3.5-8.8,7.6-19.3,7.6
		c-17.7,0-24.2-15.2-26.2-21.6H183C184.5,26.6,162.3,4,138.9,4 M51.3,76.3c-14.9,0-27.1-12.1-27.1-27.1c0-14.9,12.1-27.1,27.1-27.1
		s27.1,12.1,27.1,27.1C78.4,64.2,66.3,76.3,51.3,76.3 M114.1,39c3.4-9.7,13-16.7,24.3-16.7c11.3,0,20.8,7,24.3,16.7H114.1z"/>
</g>
</svg>
