<?xml version="1.0" encoding="utf-8"?>
<!-- Generator: Adobe Illustrator 24.1.3, SVG Export Plug-In . SVG Version: 6.00 Build 0)  -->
<svg version="1.1" id="Capa_1" xmlns="http://www.w3.org/2000/svg" xmlns:xlink="http://www.w3.org/1999/xlink" x="0px" y="0px"
	 viewBox="0 0 231.42 173.44" style="enable-background:new 0 0 231.42 173.44;" xml:space="preserve">
<style type="text/css">
	.st0{fill:#FFFFFF;}
	.st1{fill:#F93549;}
</style>
<rect class="st0" width="231.42" height="173.44"/>
<g>
	<path class="st1" d="M30.05,139.64c0-6.35,4.32-10.84,10.35-10.84c4.95,0,7.98,3.16,7.98,8.31c0,6.35-4.26,10.91-10.21,10.91
		C33.24,148.03,30.05,144.8,30.05,139.64 M43.69,137.28c0-3.06-1.53-4.56-3.83-4.56c-3.06,0-5.12,2.79-5.12,6.68
		c0,3.06,1.56,4.66,3.86,4.66C41.59,144.07,43.69,141.27,43.69,137.28"/>
	<path class="st1" d="M60.54,144.3c2.13,0,4.09-0.6,5.85-1.63l-1.36,3.89c-1.66,0.93-3.66,1.46-5.85,1.46
		c-5.06,0-7.98-3.39-7.98-8.25c0-6.02,4.56-10.97,10.41-10.97c3.66,0,5.99,1.86,5.99,4.82c0,3.39-2.26,5.22-7.35,5.52l-4.42,0.26
		C55.82,142.64,57.21,144.3,60.54,144.3 M56.31,136.39l3.23-0.23c2.69-0.2,3.99-1.03,3.99-2.43c0-1.13-0.9-1.63-2.19-1.63
		C59.18,132.1,57.18,133.76,56.31,136.39"/>
	<path class="st1" d="M70.11,139.21c0-5.99,4.52-10.41,10.44-10.41c1.53,0,3.19,0.3,4.46,0.7l0.2,3.89c-1.4-0.5-2.89-0.7-3.99-0.7
		c-3.79,0-6.45,2.56-6.45,6.32c0,3.43,2.13,5.15,5.32,5.15c1.5,0,3.16-0.37,4.69-1.16l-1.13,3.99c-1.56,0.7-2.99,1.03-4.72,1.03
		C73.63,148.03,70.11,144.43,70.11,139.21"/>
	<path class="st1" d="M105.92,133.63c0,0.83-0.17,2.06-0.3,3.39l-1.2,10.57h-4.56l1.16-10.54c0.1-0.83,0.17-1.4,0.17-1.83
		c0-1.53-0.67-2.53-2-2.53c-2.53,0-5.29,3.39-5.95,9.64l-0.56,5.25h-4.56l2.86-26.74l4.69-0.43l-2,13.27
		c1.8-3.19,4.23-4.85,7.25-4.85C104.12,128.84,105.92,130.73,105.92,133.63"/>
	<path class="st1" d="M109.3,147.06l-0.17-3.86c1.93,0.8,3.69,1.16,5.49,1.16c1.86,0,2.99-0.83,2.99-2.19
		c0-2.93-6.89-2.69-6.89-7.98c0-3.13,2.73-5.39,7.18-5.39c1.46,0,3.06,0.27,4.26,0.57l0.17,3.56c-1.86-0.46-3.16-0.63-4.32-0.63
		c-1.89,0-2.89,0.6-2.89,1.6c0,2.66,7.02,2.49,7.02,7.91c0,3.86-3,6.19-7.19,6.19C113,147.99,111,147.66,109.3,147.06"/>
	<polygon class="st1" points="128.79,120.96 133.34,120.96 130.55,147.56 125.96,147.56 	"/>
	<path class="st1" d="M145.15,144.3c2.13,0,4.09-0.6,5.85-1.63l-1.36,3.89c-1.66,0.93-3.66,1.46-5.85,1.46
		c-5.06,0-7.98-3.39-7.98-8.25c0-6.02,4.56-10.97,10.41-10.97c3.66,0,5.99,1.86,5.99,4.82c0,3.39-2.26,5.22-7.35,5.52l-4.42,0.26
		C140.42,142.64,141.82,144.3,145.15,144.3 M140.92,136.39l3.23-0.23c2.69-0.2,3.99-1.03,3.99-2.43c0-1.13-0.9-1.63-2.19-1.63
		C143.78,132.1,141.79,133.76,140.92,136.39"/>
	<path class="st1" d="M154.08,145.3c0-1.83,1.33-3.19,3.13-3.19c1.53,0,2.66,1.16,2.66,2.69c0,1.9-1.26,3.19-3.13,3.19
		C155.25,147.99,154.08,146.89,154.08,145.3"/>
	<path class="st1" d="M182.28,136.59c0,6.45-3.76,11.44-9.68,11.44c-1.6,0-3.16-0.37-4.39-1.06l-0.53,8.01l-4.56-0.66l2.76-25.04
		h4.26l-1.13,5.79c2.23-4.52,4.89-6.25,7.55-6.25C180.02,128.8,182.28,131.73,182.28,136.59 M177.59,136.42
		c0-2.73-0.77-4.16-2.23-4.16c-2.39,0-5.55,4.06-6.78,11.67c1,0.66,2.1,1,3.23,1C175.17,144.93,177.59,141.31,177.59,136.42"/>
	<path class="st1" d="M194.41,144.3c2.13,0,4.09-0.6,5.85-1.63l-1.36,3.89c-1.66,0.93-3.66,1.46-5.85,1.46
		c-5.06,0-7.98-3.39-7.98-8.25c0-6.02,4.56-10.97,10.41-10.97c3.66,0,5.99,1.86,5.99,4.82c0,3.39-2.26,5.22-7.35,5.52l-4.42,0.26
		C189.69,142.64,191.09,144.3,194.41,144.3 M190.19,136.39l3.23-0.23c2.69-0.2,3.99-1.03,3.99-2.43c0-1.13-0.9-1.63-2.19-1.63
		C193.05,132.1,191.05,133.76,190.19,136.39"/>
	<path class="st1" d="M159.86,22.47c-21.66,0-39.67,16.03-43.32,37.13c-3.85-20.96-22.21-36.85-44.29-36.85
		c-24.87,0-45.03,20.16-45.03,45.03c0,24.87,20.16,45.03,45.03,45.03c21.23,0,39.03-14.7,43.78-34.47
		c4.78,19.64,22.11,34.19,42.78,34.19c17.2,0,33.22-10.08,40.49-24.79h-20.68c-3.69,3.47-8.84,7.57-19.33,7.57
		c-17.66,0-24.22-15.17-26.22-21.6h70.84C205.42,45.14,183.22,22.47,159.86,22.47 M72.25,94.84c-14.94,0-27.06-12.11-27.06-27.06
		c0-14.94,12.11-27.05,27.06-27.05s27.05,12.11,27.05,27.05C99.31,82.73,87.2,94.84,72.25,94.84 M135.02,57.47
		c3.44-9.68,13.01-16.65,24.27-16.65c11.26,0,20.82,6.97,24.27,16.65H135.02z"/>
</g>
</svg>
